<svg width="211" height="110" viewBox="0 0 211 110" fill="none" xmlns="http://www.w3.org/2000/svg">
<rect width="210.19" height="110" rx="6" fill="#F9F9F9"/>
<rect width="32.3426" height="33.772" rx="4" transform="matrix(0.973191 -0.229999 0.227847 0.973697 81 29.4387)" fill="#ECECEC"/>
<rect width="29.3274" height="27.259" transform="matrix(0.961717 0.274046 -0.271541 0.962427 97.4321 29.9663)" fill="white"/>
<path d="M123.704 34.9516L100.671 28.3884C97.9458 27.6117 95.0465 29.4214 94.1981 32.4285L88.564 52.3973C87.7156 55.4043 89.2382 58.4741 91.9637 59.2507L114.996 65.814C117.722 66.5906 120.621 64.7809 121.47 61.7738L127.104 41.805C127.952 38.798 126.429 35.7282 123.704 34.9516ZM101.01 35.0633C102.147 35.3873 102.82 36.5199 102.517 37.5964C102.213 38.6729 101.048 39.2817 99.9109 38.9577C98.7737 38.6336 98.1003 37.501 98.404 36.4245C98.7077 35.348 99.8725 34.7392 101.01 35.0633ZM115.834 62.3346L93.1507 55.8709C91.9627 55.5324 91.7251 53.8279 92.7502 53.0086L100.918 46.4742C101.713 45.8385 102.812 46.1517 103.156 47.1121L104.628 51.2204L111.936 43.4351C112.783 42.5337 114.16 42.9259 114.41 44.14L117.736 60.3372C117.982 61.5391 116.929 62.6466 115.834 62.3346Z" fill="#DFDFDF"/>
</svg>
